<?xml version="1.0" standalone="no"?>
<!DOCTYPE svg PUBLIC "-//W3C//DTD SVG 20010904//EN"
 "http://www.w3.org/TR/2001/REC-SVG-20010904/DTD/svg10.dtd">
<svg version="1.0" xmlns="http://www.w3.org/2000/svg"
 width="300.000000pt" height="300.000000pt" viewBox="0 0 300.000000 300.000000"
 preserveAspectRatio="xMidYMid meet">
<metadata>
Created by potrace 1.10, written by Peter Selinger 2001-2011
</metadata>
<g transform="translate(0.000000,300.000000) scale(0.100000,-0.100000)"
fill="#d1a356" stroke="none">
<path d="M1470 2764 c-8 -1 -32 -5 -52 -9 -36 -6 -38 -8 -38 -45 0 -47 -8 -49
-40 -15 -13 14 -27 25 -31 25 -12 0 -117 -99 -140 -132 l-21 -29 27 -29 c33
-35 25 -52 -23 -48 -36 3 -37 2 -45 -42 -4 -25 -5 -78 -2 -117 l7 -73 44 0
c24 0 44 -3 44 -7 0 -4 -12 -19 -26 -34 l-26 -28 20 -33 c22 -36 70 -83 116
-115 l30 -20 24 28 c33 40 42 36 42 -15 0 -42 1 -44 38 -50 20 -3 57 -6 82 -6
25 0 62 3 83 6 36 6 37 8 37 50 0 51 9 55 42 15 l24 -28 30 20 c46 32 94 79
116 115 l20 33 -26 28 c-14 15 -26 30 -26 34 0 4 20 7 44 7 l44 0 7 73 c3 39
2 92 -2 117 -8 44 -9 45 -45 42 -48 -4 -56 13 -23 48 l27 29 -21 29 c-23 33
-128 132 -140 132 -4 0 -18 -11 -31 -25 -32 -34 -40 -32 -40 15 0 38 -1 39
-37 45 -63 10 -97 13 -113 9z m95 -39 c14 -3 21 -13 23 -31 1 -15 7 -33 13
-40 13 -16 45 -18 54 -4 3 5 15 14 25 20 15 8 28 1 74 -41 31 -28 56 -57 56
-64 0 -7 -9 -24 -21 -38 -25 -33 -13 -64 29 -73 47 -10 49 -12 46 -36 -1 -12
-3 -49 -3 -80 -1 -57 -2 -58 -29 -58 -16 0 -37 -9 -47 -20 -18 -20 -18 -21 4
-51 14 -18 20 -37 16 -49 -7 -21 -92 -100 -107 -100 -6 0 -22 9 -37 20 -25 17
-30 18 -49 4 -14 -10 -22 -26 -22 -44 0 -26 -4 -29 -45 -36 -25 -3 -65 -3 -90
0 -41 7 -45 10 -45 36 0 18 -8 34 -22 44 -19 14 -24 13 -49 -4 -15 -11 -32
-20 -38 -20 -16 0 -99 78 -106 100 -3 10 3 33 14 51 19 31 19 35 4 51 -9 10
-28 18 -43 18 -31 0 -40 19 -40 85 0 66 9 85 39 85 51 0 64 35 34 88 -17 29
-17 30 12 64 17 19 45 45 64 57 l33 23 22 -21 c12 -12 30 -21 39 -21 19 0 37
29 37 59 0 20 9 24 65 33 19 4 48 1 90 -7z"/>
<path d="M1462 2688 c-6 -6 -12 -22 -12 -35 0 -17 -11 -27 -46 -42 -44 -20
-47 -20 -75 -4 -32 19 -51 13 -76 -23 -12 -18 -11 -24 7 -46 l20 -26 -21 -46
c-15 -35 -25 -46 -42 -46 -31 0 -47 -18 -47 -51 0 -32 23 -59 51 -59 14 0 25
-13 38 -42 17 -40 17 -45 2 -71 -14 -25 -14 -30 -1 -55 19 -33 45 -39 71 -16
18 16 21 17 55 1 19 -9 41 -17 49 -17 8 0 15 -9 15 -21 0 -37 19 -59 50 -59
31 0 50 22 50 59 0 12 5 22 10 22 20 3 26 4 58 18 29 12 35 12 51 -3 23 -21
44 -20 64 2 21 23 21 46 2 76 -14 21 -14 26 0 52 8 16 15 35 15 42 0 7 13 12
30 12 32 0 50 22 50 62 0 30 -17 48 -47 48 -17 0 -27 11 -43 47 -18 41 -19 48
-5 63 20 22 19 53 -3 73 -23 21 -36 21 -66 2 -21 -14 -27 -14 -66 4 -33 15
-46 27 -54 53 -9 26 -17 34 -41 36 -17 2 -36 -3 -43 -10z m60 -52 c-4 -32 -2
-34 30 -41 18 -4 48 -16 66 -28 l34 -20 22 27 c21 27 22 27 39 9 16 -19 16
-21 -6 -42 l-24 -22 24 -46 c12 -26 23 -55 23 -65 0 -14 8 -18 40 -18 36 0 40
-2 40 -25 0 -22 -4 -25 -40 -25 -32 0 -40 -4 -40 -18 0 -11 -10 -39 -23 -63
l-23 -43 25 -22 c25 -22 25 -24 9 -40 -17 -17 -19 -17 -43 6 -23 22 -28 23
-48 10 -12 -7 -40 -19 -62 -25 -36 -11 -40 -16 -43 -49 -2 -27 -8 -36 -22 -36
-14 0 -20 9 -22 36 -3 33 -7 38 -43 49 -22 6 -50 18 -62 25 -20 13 -25 12 -48
-10 -24 -23 -26 -23 -43 -6 -16 16 -16 18 9 40 l25 22 -23 43 c-13 24 -23 52
-23 63 0 14 -8 18 -40 18 -36 0 -40 3 -40 25 0 23 4 25 40 25 32 0 40 4 40 18
0 10 11 39 23 65 l24 46 -24 22 c-22 21 -22 23 -6 42 17 18 18 18 39 -9 l22
-27 34 20 c18 12 48 24 66 28 32 7 34 9 30 41 -4 31 -2 34 22 34 24 0 26 -3
22 -34z"/>
<path d="M1440 2493 c-53 -28 -83 -78 -78 -134 8 -78 62 -129 138 -129 76 0
130 51 137 129 9 106 -103 182 -197 134z m141 -54 c67 -72 15 -179 -86 -179
-52 0 -105 53 -105 105 0 68 40 104 118 105 37 0 49 -5 73 -31z"/>
<path d="M1450 2418 c-27 -30 -26 -79 3 -106 32 -30 71 -28 96 4 28 35 27 75
-2 102 -30 28 -71 28 -97 0z m92 -33 c9 -21 8 -28 -7 -45 -10 -11 -26 -20 -35
-20 -9 0 -25 9 -35 20 -27 30 -7 70 35 70 23 0 33 -6 42 -25z"/>
<path d="M854 2405 c-2 -5 -3 -27 -1 -47 l2 -38 73 0 72 0 0 44 0 44 -71 4
c-42 2 -73 -1 -75 -7z m106 -40 c0 -16 -64 -22 -74 -6 -9 14 5 21 41 21 23 0
33 -5 33 -15z"/>
<path d="M2030 2368 l0 -48 70 0 70 0 0 29 c0 16 3 36 6 44 4 13 -8 16 -70 19
l-76 3 0 -47z m110 -3 c0 -11 -11 -15 -40 -15 -29 0 -40 4 -40 15 0 11 11 15
40 15 29 0 40 -4 40 -15z"/>
<path d="M700 2370 c-19 -10 -48 -29 -63 -42 l-28 -23 35 -34 35 -34 31 27
c17 14 35 26 38 26 4 0 13 4 20 9 11 7 11 16 1 50 -14 46 -20 48 -69 21z m40
-34 c0 -18 -51 -55 -67 -49 -21 8 -15 22 20 43 38 24 47 25 47 6z"/>
<path d="M2256 2339 c-9 -23 -16 -42 -14 -43 16 -7 75 -53 81 -63 6 -10 17 -6
48 19 37 30 38 32 22 50 -18 20 -102 78 -114 78 -4 0 -14 -19 -23 -41z m92
-40 c10 -16 10 -21 -4 -26 -19 -7 -70 40 -60 56 9 14 48 -4 64 -30z"/>
<path d="M460 2094 c-62 -20 -135 -76 -171 -132 -107 -169 -44 -387 136 -473
49 -24 73 -29 132 -29 133 0 232 58 293 172 31 57 34 70 35 148 0 108 -25 169
-99 238 -88 84 -212 113 -326 76z m245 -55 c108 -55 163 -157 152 -285 -12
-151 -122 -253 -282 -262 -96 -5 -150 14 -219 78 -61 57 -89 125 -88 217 1 89
24 145 82 203 94 94 231 113 355 49z"/>
<path d="M500 2041 c-117 -38 -200 -145 -200 -256 0 -97 67 -203 156 -244 25
-12 48 -20 51 -17 3 3 16 1 29 -4 33 -13 126 12 175 46 69 47 109 128 109 218
0 138 -106 253 -240 262 -30 2 -66 0 -80 -5z m167 -50 c97 -49 150 -162 123
-262 -49 -179 -261 -239 -390 -109 -75 74 -91 174 -44 268 57 116 197 162 311
103z"/>
<path d="M567 1920 c-3 -11 -14 -20 -25 -20 -21 0 -49 -27 -52 -50 -5 -36 2
-52 30 -68 22 -12 30 -24 30 -45 0 -24 -3 -27 -32 -25 -24 2 -33 -2 -36 -15
-3 -12 5 -19 27 -23 21 -5 31 -12 31 -25 0 -11 7 -19 15 -19 8 0 15 7 15 16 0
8 13 20 29 25 60 21 68 94 14 119 -20 9 -31 20 -28 28 3 8 5 20 5 28 0 10 6
13 19 9 10 -3 24 1 31 10 11 13 8 17 -18 27 -24 9 -31 17 -26 30 3 12 0 18 -9
18 -8 0 -17 -9 -20 -20z m-7 -82 c0 -30 -1 -31 -17 -16 -13 14 -14 20 -3 32
18 22 20 20 20 -16z m40 -108 c0 -17 -17 -37 -25 -29 -2 2 -1 16 2 31 6 30 23
28 23 -2z"/>
<path d="M2316 2086 c-73 -31 -147 -101 -178 -170 -18 -40 -23 -69 -23 -136 1
-78 4 -91 35 -148 61 -114 160 -172 293 -172 129 0 237 71 293 193 24 53 26
68 22 145 -3 72 -9 96 -33 141 -57 103 -153 162 -274 168 -64 3 -86 0 -135
-21z m260 -46 c108 -53 154 -131 154 -258 0 -64 -5 -87 -26 -130 -106 -212
-414 -218 -530 -10 -26 47 -29 63 -29 138 0 126 40 197 144 258 87 51 186 52
287 2z"/>
<path d="M2368 2041 c-71 -23 -145 -91 -173 -158 -21 -50 -19 -152 4 -205 41
-96 141 -162 243 -161 33 1 65 6 71 12 6 6 18 11 27 11 23 0 97 66 117 104 62
115 55 209 -21 309 -53 70 -188 114 -268 88z m191 -58 c128 -79 148 -257 42
-363 -149 -149 -395 -46 -395 165 0 181 199 293 353 198z"/>
<path d="M2466 1851 l-55 -55 -31 29 c-16 16 -31 27 -32 24 -2 -2 -16 -18 -31
-35 l-28 -32 56 -53 c32 -30 61 -54 65 -54 5 0 47 37 93 83 l85 82 -33 33 -34
34 -55 -56z m71 -7 c2 -5 -26 -38 -62 -74 l-65 -64 -39 39 c-22 21 -38 42 -35
47 8 13 31 9 48 -8 21 -21 44 -12 91 36 38 38 55 45 62 24z"/>
<path d="M1278 1811 c-82 -26 -135 -61 -199 -127 -90 -95 -128 -195 -129 -337
0 -49 -5 -86 -14 -100 -44 -69 -16 -164 58 -198 23 -10 52 -19 66 -19 21 0 29
-10 49 -57 14 -32 47 -79 76 -108 l51 -53 -90 -4 c-75 -3 -101 -9 -149 -33
-72 -35 -150 -117 -185 -192 -24 -53 -27 -71 -30 -204 l-4 -146 722 0 722 0
-4 146 c-3 133 -6 151 -30 204 -35 75 -113 157 -185 192 -48 24 -74 30 -149
33 l-90 4 51 53 c29 29 62 76 76 108 20 47 28 57 49 57 14 0 43 9 66 19 74 34
102 129 58 198 -9 14 -14 51 -14 100 -1 96 -13 150 -51 228 -54 110 -159 199
-278 235 -88 28 -358 28 -443 1z m451 -35 c110 -40 186 -106 244 -214 38 -70
40 -79 45 -185 3 -74 11 -125 22 -150 34 -76 -3 -149 -84 -162 -52 -9 -59 -15
-91 -80 -14 -30 -50 -80 -78 -111 l-51 -56 23 -19 c16 -13 41 -19 82 -20 32
-1 62 -2 67 -4 53 -14 71 -21 107 -42 56 -31 121 -102 148 -161 18 -38 22 -71
25 -177 l4 -130 -674 2 c-370 1 -681 2 -691 2 -18 1 -19 10 -15 134 3 124 5
135 32 185 60 109 173 181 295 189 135 9 143 21 72 99 -27 30 -62 79 -76 109
-33 66 -39 71 -92 80 -63 10 -93 43 -93 102 1 26 7 59 15 73 9 16 15 55 15
105 1 136 30 220 107 305 88 98 178 139 323 149 112 8 264 -3 319 -23z"/>
<path d="M1317 1760 c-100 -25 -217 -125 -265 -227 -43 -92 -44 -253 -1 -253
20 0 39 35 39 73 l0 42 50 2 c59 3 126 33 164 72 l28 29 66 -34 c59 -29 134
-49 262 -69 19 -3 78 -8 130 -11 118 -7 120 -7 120 -42 0 -16 9 -37 20 -47 17
-15 22 -16 36 -4 13 11 16 29 12 99 -3 70 -10 98 -33 146 -37 76 -124 162
-200 200 -58 28 -65 29 -225 31 -91 1 -182 -2 -203 -7z m425 -58 c84 -41 158
-120 188 -200 25 -67 39 -192 21 -192 -7 0 -11 19 -11 50 l0 50 -58 0 c-31 0
-113 7 -182 15 -175 20 -274 48 -340 95 l-29 21 -43 -43 c-48 -49 -99 -68
-178 -68 l-52 0 4 -60 c2 -46 0 -60 -11 -60 -20 0 -9 119 19 192 25 67 93 147
157 184 80 47 116 54 288 51 159 -2 161 -2 227 -35z"/>
<path d="M1299 1419 c-24 -15 -64 -33 -90 -39 -78 -19 -82 -28 -77 -182 3
-122 6 -138 33 -193 104 -215 372 -282 559 -139 100 76 143 177 145 340 2 135
-1 139 -109 149 -126 11 -251 35 -337 64 l-82 28 -42 -28z m216 -60 c44 -10
135 -24 203 -31 l124 -12 -4 -126 c-3 -113 -6 -130 -31 -178 -37 -70 -96 -128
-166 -161 -81 -38 -201 -38 -282 0 -69 33 -129 91 -166 161 -25 49 -28 64 -31
189 l-4 136 38 8 c41 7 129 48 139 64 3 6 24 2 53 -10 26 -11 83 -29 127 -40z"/>
<path d="M1005 1224 c-34 -36 -32 -70 6 -105 17 -16 35 -29 39 -29 40 0 57
112 22 143 -26 23 -39 21 -67 -9z m60 -54 c0 -28 -2 -50 -5 -50 -3 0 -16 7
-28 16 -36 25 -24 84 18 84 11 0 15 -12 15 -50z"/>
<path d="M1927 1232 c-22 -24 -23 -105 -1 -126 21 -22 27 -20 63 13 38 36 40
69 5 105 -31 31 -45 32 -67 8z m51 -24 c19 -19 14 -55 -10 -72 -12 -9 -25 -16
-28 -16 -3 0 -5 22 -5 50 0 52 16 65 43 38z"/>
<path d="M1374 746 c-16 -23 -7 -43 37 -80 56 -48 131 -47 181 1 44 42 53 62
34 81 -12 12 -40 16 -127 16 -99 1 -113 -1 -125 -18z m236 -17 c0 -3 -14 -18
-31 -35 -25 -24 -39 -29 -79 -29 -40 0 -54 5 -79 29 -17 17 -31 32 -31 35 0 3
50 6 110 6 61 0 110 -3 110 -6z"/>
<path d="M1069 736 c-91 -32 -176 -113 -203 -193 -10 -28 -16 -81 -16 -133 0
-115 3 -117 141 -118 99 -1 108 1 129 23 12 13 21 34 20 47 -5 58 0 79 17 76
14 -2 17 -13 14 -53 -2 -39 2 -55 18 -72 20 -21 25 -22 311 -22 285 0 291 1
311 22 11 12 19 31 18 42 -4 55 2 85 16 85 17 0 18 -7 16 -65 -1 -28 4 -47 18
-62 19 -20 31 -22 129 -22 143 -1 145 1 140 136 -2 69 -9 109 -22 135 -28 58
-89 121 -147 153 -51 28 -60 30 -169 30 l-115 0 -32 -49 c-38 -59 -75 -84
-134 -92 -88 -12 -142 18 -212 120 -17 25 -22 26 -115 26 -53 -1 -113 -7 -133
-14z m239 -45 c19 -43 69 -88 119 -107 93 -36 216 9 257 93 l21 42 91 1 c113
0 168 -18 233 -76 64 -57 92 -123 99 -231 l5 -83 -122 0 -121 0 0 70 0 70 -45
0 -45 0 0 -70 0 -70 -300 0 -300 0 0 70 0 70 -45 0 -45 0 0 -70 0 -70 -121 0
-122 0 5 83 c7 108 35 174 100 232 64 58 112 73 228 74 l95 1 13 -29z"/>
</g>
</svg>
