<?xml version="1.0" standalone="no"?>
<!DOCTYPE svg PUBLIC "-//W3C//DTD SVG 20010904//EN"
 "http://www.w3.org/TR/2001/REC-SVG-20010904/DTD/svg10.dtd">
<svg version="1.0" xmlns="http://www.w3.org/2000/svg"
 width="300.000000pt" height="300.000000pt" viewBox="0 0 300.000000 300.000000"
 preserveAspectRatio="xMidYMid meet">
<metadata>
Created by potrace 1.10, written by Peter Selinger 2001-2011
</metadata>
<g transform="translate(0.000000,300.000000) scale(0.100000,-0.100000)"
fill="#fabd5f" stroke="none">
<path d="M1230 2980 c-17 -17 -20 -33 -20 -125 l0 -105 -49 0 c-28 0 -53 -6
-59 -13 -6 -7 -19 -62 -29 -122 -13 -75 -23 -111 -35 -118 -12 -8 -41 -1 -118
27 -61 23 -111 35 -124 32 -14 -3 -33 -25 -50 -56 l-27 -50 -155 0 -154 0 0
78 c0 76 1 78 31 96 97 57 91 207 -11 258 -40 20 -91 23 -123 7 -106 -55 -124
-177 -37 -252 l40 -34 0 -110 c0 -149 -7 -143 192 -143 153 0 156 0 162 -22 3
-13 45 -54 93 -93 l87 -70 -119 -6 c-66 -4 -176 -7 -245 -8 l-125 -1 -17 29
c-56 100 -208 90 -259 -16 -35 -73 -14 -140 62 -191 27 -19 43 -23 81 -19 51
4 112 42 123 75 5 17 23 19 202 25 109 3 199 5 200 3 2 -2 -15 -16 -37 -31
-59 -41 -60 -58 -1 -162 l51 -89 0 -112 0 -112 -129 0 c-121 0 -130 1 -136 20
-11 34 -72 73 -123 77 -83 8 -157 -61 -157 -147 0 -86 74 -155 157 -147 51 4
112 43 123 77 6 19 15 20 166 20 91 0 169 4 180 10 17 10 19 23 19 153 l0 143
85 29 c74 26 86 28 98 15 8 -8 22 -62 31 -120 17 -107 29 -130 68 -130 16 0
18 -11 18 -125 l0 -125 -84 0 c-76 0 -86 -2 -100 -22 -14 -19 -16 -74 -16
-393 l0 -370 -225 -225 c-124 -124 -225 -233 -225 -242 0 -10 11 -25 25 -34
29 -19 44 -12 26 10 -7 8 -11 22 -9 30 2 9 101 114 221 235 l217 218 0 376 c0
333 2 376 16 381 9 3 48 6 88 6 43 0 77 5 84 12 15 15 17 251 2 279 -6 10 -19
19 -29 19 -29 0 -37 19 -51 110 -23 152 -45 169 -163 125 -108 -40 -106 -35
-106 -187 -1 -71 -4 -134 -7 -139 -3 -5 -77 -9 -164 -9 l-159 0 -32 -40 c-40
-49 -87 -67 -138 -51 -59 17 -86 53 -86 113 0 43 4 53 33 79 57 51 153 37 192
-28 l19 -33 140 0 c128 0 141 2 151 19 5 11 10 68 10 128 l0 108 -50 89 c-28
49 -50 91 -50 94 0 3 18 25 41 49 40 44 40 45 22 65 -17 19 -25 20 -208 13
l-189 -6 -43 -44 c-49 -52 -92 -64 -146 -41 -101 42 -98 174 5 217 43 18 102
-3 146 -52 l35 -39 237 0 c221 0 238 1 254 19 26 29 14 51 -67 116 -39 32 -81
72 -92 89 l-20 31 -160 5 -160 5 -3 115 -3 115 -44 41 c-43 39 -45 44 -45 96
0 44 4 59 22 76 55 50 128 50 178 0 51 -51 37 -137 -29 -186 -31 -22 -31 -24
-31 -111 0 -63 4 -92 14 -100 9 -8 64 -11 172 -9 l158 3 23 40 c13 22 27 46
32 54 8 12 25 9 108 -22 113 -42 132 -44 162 -19 17 13 25 39 38 117 17 111
27 125 83 125 55 0 60 11 60 129 0 94 2 107 22 128 18 20 19 23 5 23 -9 0 -26
-9 -37 -20z"/>
<path d="M1750 2991 c0 -5 7 -14 15 -21 10 -8 15 -30 15 -65 0 -83 5 -85 207
-85 157 0 171 1 188 20 10 11 27 20 37 20 11 0 72 -27 136 -60 187 -95 302
-203 387 -362 67 -127 89 -218 90 -369 l0 -126 -38 -74 c-20 -41 -37 -80 -37
-86 0 -7 33 -88 74 -180 88 -201 92 -218 60 -250 -18 -18 -34 -23 -72 -23 -70
0 -82 -17 -82 -115 l0 -79 -47 -49 -48 -48 -5 -152 -5 -152 -159 -3 -159 -3
-66 31 c-36 17 -110 56 -163 86 -60 34 -102 53 -110 48 -18 -11 -36 -36 -89
-126 l-46 -78 -2 -136 -2 -137 176 -176 c96 -97 175 -184 175 -193 0 -8 -7
-21 -15 -28 -21 -18 -13 -22 19 -11 19 8 26 17 26 38 0 23 -32 60 -175 203
l-175 175 0 128 0 129 56 94 c31 52 59 94 63 94 3 0 23 -11 43 -25 21 -14 89
-52 153 -85 l115 -60 165 0 c96 0 175 4 186 10 17 10 19 23 19 163 l0 153 50
49 50 49 0 88 0 88 54 0 c43 0 60 5 84 25 55 46 51 67 -42 277 l-85 190 28 39
c89 123 78 387 -26 592 -68 136 -157 243 -268 322 -64 46 -275 155 -299 155
-8 0 -23 -11 -34 -25 -20 -25 -20 -25 -191 -25 l-171 0 0 65 c0 61 -2 66 -26
75 -31 12 -34 12 -34 1z"/>
<path d="M1301 2916 c-8 -9 -11 -45 -9 -98 3 -83 3 -83 35 -97 27 -12 32 -20
38 -60 26 -190 53 -226 142 -190 15 7 57 22 93 35 l64 24 31 -30 c30 -29 34
-30 128 -30 94 0 97 1 114 28 10 15 46 67 81 115 119 166 120 166 -107 169
l-166 3 -3 55 c-5 91 -4 90 -232 90 -157 0 -200 -3 -209 -14z m409 -69 c0 -31
6 -61 16 -75 15 -21 21 -22 185 -22 l169 0 -74 -104 c-41 -58 -80 -114 -86
-125 -10 -19 -20 -21 -103 -21 -92 0 -92 0 -109 30 -22 38 -36 38 -153 -6
-134 -50 -133 -51 -155 101 -15 94 -31 125 -65 125 -24 0 -25 2 -25 75 l0 75
200 0 200 0 0 -53z"/>
<path d="M316 2809 c-19 -15 -26 -30 -26 -53 0 -87 98 -118 136 -44 18 36 12
70 -18 98 -28 26 -58 25 -92 -1z m82 -21 c15 -15 15 -61 0 -76 -26 -26 -88 0
-88 36 0 40 61 67 88 40z"/>
<path d="M2131 2698 c-44 -62 -96 -135 -116 -162 l-35 -49 0 -286 0 -286 75
-102 76 -102 -3 -113 -3 -113 -105 -43 c-58 -23 -113 -52 -122 -63 -16 -18
-18 -44 -18 -183 0 -130 3 -166 16 -184 17 -24 224 -151 344 -210 l74 -37 126
3 c69 2 131 8 137 14 9 7 13 48 13 140 0 102 3 134 16 154 15 23 15 26 0 42
-8 10 -40 26 -69 35 -62 20 -137 70 -137 92 0 24 28 18 68 -15 65 -51 180 -78
210 -48 7 7 12 44 12 95 0 94 -3 90 99 95 36 2 57 8 64 19 7 11 -11 62 -72
200 -44 101 -81 192 -81 200 0 9 16 43 35 75 49 81 58 123 52 234 -13 214
-128 435 -298 568 -73 57 -226 142 -256 142 -17 0 -41 -27 -102 -112z m328
-42 c183 -134 301 -370 301 -601 0 -87 -22 -151 -73 -211 -15 -18 -27 -36 -27
-41 0 -8 147 -340 169 -382 11 -21 10 -21 -63 -21 -96 0 -106 -11 -106 -124
l0 -79 -45 6 c-50 7 -115 37 -158 73 -37 31 -62 30 -83 -1 -15 -23 -15 -27 0
-49 33 -51 149 -116 207 -116 l20 0 -20 -26 c-19 -24 -21 -40 -21 -155 l0
-129 -122 0 -121 0 -97 49 c-54 27 -144 78 -201 114 l-104 64 -3 169 -2 170
122 49 123 50 3 128 3 127 -76 100 -75 99 0 281 0 282 110 153 110 153 89 -47
c49 -26 112 -64 140 -85z"/>
<path d="M2110 2400 l0 -100 50 0 50 0 0 100 0 100 -50 0 -50 0 0 -100z m70 0
c0 -56 -3 -70 -15 -70 -12 0 -15 14 -15 70 0 56 3 70 15 70 12 0 15 -14 15
-70z"/>
<path d="M2110 2150 l0 -50 50 0 50 0 0 50 0 50 -50 0 -50 0 0 -50z m70 0 c0
-11 -7 -20 -15 -20 -8 0 -15 9 -15 20 0 11 7 20 15 20 8 0 15 -9 15 -20z"/>
<path d="M2110 1950 l0 -50 50 0 50 0 0 50 0 50 -50 0 -50 0 0 -50z m70 0 c0
-11 -7 -20 -15 -20 -8 0 -15 9 -15 20 0 11 7 20 15 20 8 0 15 -9 15 -20z"/>
<path d="M2524 1975 c-11 -17 -15 -40 -12 -74 l3 -50 -65 -3 c-58 -3 -66 -6
-79 -30 -14 -24 -14 -28 3 -47 17 -18 31 -21 108 -21 129 0 128 -1 128 123 0
67 -4 107 -12 115 -20 20 -56 14 -74 -13z m54 -102 l-3 -88 -88 -3 c-81 -3
-88 -1 -85 15 2 14 15 19 58 21 30 2 60 8 67 14 8 6 13 34 13 69 0 53 2 59 20
59 20 0 21 -5 18 -87z"/>
<path d="M1174 2672 c-20 -13 -31 -46 -44 -129 -12 -82 -12 -83 -56 -108 l-43
-25 -96 35 c-69 25 -102 32 -114 26 -24 -14 -73 -108 -67 -129 3 -10 39 -45
78 -79 l73 -61 -3 -56 c-4 -56 -4 -56 -72 -113 -38 -31 -72 -63 -75 -71 -6
-17 37 -113 60 -132 13 -10 30 -8 93 15 125 44 119 44 209 -10 2 -1 8 -37 14
-81 6 -43 18 -91 26 -106 13 -26 18 -28 78 -28 80 0 87 10 105 128 12 81 14
84 51 108 49 31 61 30 158 -7 64 -24 84 -28 100 -19 27 14 74 106 66 130 -3
10 -37 44 -75 75 l-70 57 0 57 0 56 73 60 c40 34 73 70 75 82 4 26 -52 119
-76 125 -10 3 -57 -10 -106 -28 l-87 -34 -38 19 c-52 27 -57 36 -71 126 -18
113 -27 125 -98 125 -31 0 -62 -4 -68 -8z m136 -114 c7 -51 16 -100 21 -108 4
-8 31 -28 61 -44 l54 -29 98 37 c54 20 99 35 101 34 1 -2 13 -24 28 -50 l25
-48 -79 -66 c-43 -36 -79 -70 -80 -75 -1 -5 -1 -31 -1 -59 0 -27 0 -54 1 -59
1 -5 37 -39 80 -75 l79 -66 -25 -48 c-15 -26 -27 -48 -28 -50 -2 -1 -47 14
-101 34 l-98 37 -54 -29 c-30 -16 -57 -36 -61 -44 -5 -8 -14 -57 -21 -107
l-13 -93 -58 0 c-66 0 -62 -6 -80 118 -13 88 -18 95 -86 132 l-42 23 -98 -36
c-53 -20 -99 -34 -102 -32 -3 2 -17 24 -31 50 l-25 46 25 20 c14 11 51 43 83
70 l57 50 0 58 c0 65 -4 72 -99 146 -34 26 -61 52 -61 57 0 5 12 30 26 54 20
33 31 43 43 39 9 -4 53 -21 99 -37 l83 -31 42 23 c68 37 73 44 86 132 18 124
14 118 80 118 l58 0 13 -92z"/>
<path d="M1160 2334 c-162 -70 -160 -301 2 -369 104 -43 237 22 267 132 13 47
13 59 0 106 -30 110 -166 176 -269 131z m161 -39 c15 -8 38 -28 53 -45 22 -26
26 -41 26 -91 0 -92 -37 -146 -117 -169 -110 -33 -213 43 -213 159 0 130 132
207 251 146z"/>
<path d="M1178 2265 c-36 -20 -68 -75 -68 -117 0 -41 34 -97 70 -115 79 -40
169 12 177 103 4 40 0 55 -19 84 -40 58 -102 76 -160 45z m124 -44 c27 -24 33
-36 33 -71 0 -35 -6 -47 -33 -71 -44 -40 -93 -40 -133 0 -62 62 -20 171 65
171 25 0 45 -9 68 -29z"/>
<path d="M1775 2414 c-9 -10 -13 -23 -9 -33 19 -45 16 -57 -23 -86 -69 -53
-94 -84 -83 -106 10 -17 23 -19 133 -19 82 0 127 4 135 12 15 15 16 201 2 229
-9 16 -22 19 -75 19 -45 0 -68 -5 -80 -16z m135 -114 l0 -100 -115 0 c-63 0
-115 1 -115 3 0 2 29 27 65 56 70 57 81 86 48 123 -15 17 -13 18 50 18 l67 0
0 -100z"/>
<path d="M166 2159 c-50 -39 -20 -139 42 -139 32 0 43 7 65 40 24 35 21 57
-12 91 -35 34 -59 36 -95 8z m78 -25 c30 -29 9 -84 -31 -84 -21 0 -53 29 -53
48 0 22 30 52 51 52 10 0 25 -7 33 -16z"/>
<path d="M1666 2114 c-22 -21 -9 -43 59 -96 57 -44 62 -55 45 -89 -8 -13 -7
-25 0 -39 9 -17 21 -20 78 -20 40 0 73 5 80 12 15 15 16 201 2 229 -10 17 -22
19 -130 19 -94 0 -122 -3 -134 -16z m244 -114 l0 -100 -66 0 -65 0 15 22 c29
41 20 63 -49 119 -36 29 -65 54 -65 56 0 2 52 3 115 3 l115 0 0 -100z"/>
<path d="M1412 1818 c-20 -23 -27 -43 -36 -103 -9 -68 -19 -111 -29 -122 -5
-7 -26 -13 -47 -13 -60 0 -68 -17 -69 -154 -2 -99 1 -121 15 -137 16 -18 36
-19 294 -19 201 0 279 3 288 12 7 7 12 37 12 69 l0 56 70 31 c39 17 73 39 77
48 8 21 -21 44 -57 44 -32 0 -41 7 -33 26 4 10 26 14 87 14 50 0 87 5 94 12 7
7 12 34 12 62 0 42 -6 57 -41 105 -23 31 -49 62 -57 69 -11 8 -56 12 -143 12
l-127 0 -25 -30 c-14 -16 -29 -30 -34 -30 -4 0 -50 16 -101 35 -109 41 -122
42 -150 13z m146 -43 c113 -43 128 -43 150 -5 l17 30 126 0 125 0 42 -57 c34
-46 42 -65 42 -100 l0 -43 -100 0 -100 0 0 -50 0 -50 63 -1 c34 0 55 -3 47 -6
-62 -20 -128 -49 -142 -61 -13 -11 -18 -30 -18 -74 l0 -58 -275 0 -275 0 0
125 0 125 49 0 c32 0 53 5 61 15 7 9 21 64 31 122 17 98 28 123 54 123 6 0 52
-16 103 -35z"/>
<path d="M1460 1550 l0 -50 53 0 52 0 0 50 0 50 -52 0 -53 0 0 -50z m70 0 c0
-11 -7 -20 -15 -20 -8 0 -15 9 -15 20 0 11 7 20 15 20 8 0 15 -9 15 -20z"/>
<path d="M1660 1550 l0 -50 53 0 52 0 0 50 0 50 -52 0 -53 0 0 -50z m70 0 c0
-23 -25 -27 -33 -6 -7 16 1 26 20 26 7 0 13 -9 13 -20z"/>
<path d="M316 1559 c-51 -40 -20 -139 45 -139 37 0 79 42 79 80 0 33 -44 80
-75 80 -12 0 -34 -9 -49 -21z m82 -21 c15 -15 15 -61 0 -76 -26 -26 -88 0 -88
36 0 40 61 67 88 40z"/>
<path d="M1047 1212 c-15 -17 -17 -57 -17 -372 l0 -354 -187 -188 c-184 -185
-186 -188 -168 -208 17 -19 30 -20 194 -20 l177 0 45 48 c102 105 99 97 99
285 0 160 1 167 20 167 19 0 20 -7 20 -99 0 -81 3 -103 18 -121 l18 -23 36 31
c19 17 48 50 63 72 l29 42 0 356 c0 261 -4 363 -13 380 -11 21 -16 22 -165 22
-135 0 -155 -2 -169 -18z m315 -379 l-2 -368 -50 -58 -50 -59 0 126 0 126 -50
0 -50 0 0 -182 0 -183 -58 -67 -57 -67 -181 0 -180 -1 188 187 188 187 0 363
0 363 153 0 152 0 -3 -367z"/>
<path d="M1160 950 l0 -50 50 0 50 0 0 50 0 50 -50 0 -50 0 0 -50z m70 0 c0
-13 -7 -20 -20 -20 -13 0 -20 7 -20 20 0 13 7 20 20 20 13 0 20 -7 20 -20z"/>
<path d="M1160 750 l0 -50 50 0 50 0 0 50 0 50 -50 0 -50 0 0 -50z m70 0 c0
-13 -7 -20 -20 -20 -13 0 -20 7 -20 20 0 13 7 20 20 20 13 0 20 -7 20 -20z"/>
<path d="M1447 1212 c-15 -16 -17 -51 -17 -289 0 -249 1 -271 18 -286 16 -14
43 -17 168 -17 103 0 154 4 162 12 28 28 12 58 -80 154 -106 109 -105 106
-107 304 -1 70 -6 111 -15 123 -19 24 -107 24 -129 -1z m115 -169 l-3 -157 99
-100 c55 -56 102 -109 105 -118 6 -17 -5 -18 -148 -18 l-155 0 0 275 0 275 53
0 52 0 -3 -157z"/>
<path d="M1647 1213 c-12 -15 -15 -46 -16 -157 l-1 -140 85 -85 c83 -83 85
-84 105 -66 24 22 90 137 90 157 0 8 -16 28 -35 45 l-35 31 0 97 c0 132 -2
135 -99 135 -62 0 -81 -4 -94 -17z m163 -112 c0 -55 3 -107 6 -116 4 -9 21
-26 40 -39 l33 -22 -43 -72 -42 -71 -72 72 -72 72 0 138 0 137 75 0 75 0 0
-99z"/>
<path d="M1447 562 c-12 -13 -17 -37 -17 -73 l0 -54 -140 -160 c-77 -88 -140
-163 -140 -168 0 -5 6 -15 14 -23 19 -19 395 -21 414 -2 9 9 12 76 12 239 0
261 1 259 -79 259 -34 0 -53 -5 -64 -18z m118 -237 l0 -225 -200 0 -199 0 50
52 c28 29 94 103 147 165 l97 111 0 61 0 61 53 0 52 0 0 -225z"/>
<path d="M1647 562 c-15 -16 -17 -48 -17 -239 0 -200 2 -221 18 -236 16 -15
45 -17 198 -17 202 0 230 7 206 51 -7 13 -69 80 -137 149 l-125 125 0 77 c0
93 -11 108 -79 108 -34 0 -53 -5 -64 -18z m115 -94 l-4 -81 144 -144 143 -143
-193 0 -192 0 0 225 0 225 53 0 52 0 -3 -82z"/>
</g>
</svg>
