<?xml version="1.0" standalone="no"?>
<!DOCTYPE svg PUBLIC "-//W3C//DTD SVG 20010904//EN"
 "http://www.w3.org/TR/2001/REC-SVG-20010904/DTD/svg10.dtd">
<svg version="1.0" xmlns="http://www.w3.org/2000/svg"
 width="300.000000pt" height="300.000000pt" viewBox="0 0 300.000000 300.000000"
 preserveAspectRatio="xMidYMid meet">
<metadata>
Created by potrace 1.10, written by Peter Selinger 2001-2011
</metadata>
<g transform="translate(0.000000,300.000000) scale(0.100000,-0.100000)"
fill="#d1a356" stroke="none">
<path d="M1350 2723 c-74 -42 -314 -176 -532 -298 l-398 -222 163 -90 162 -89
3 89 c2 59 8 97 18 112 15 23 349 236 392 249 13 5 38 0 65 -12 l44 -19 199
109 c109 60 210 115 223 122 22 12 19 15 -77 69 -55 32 -106 57 -114 57 -7 -1
-74 -35 -148 -77z m229 2 c34 -20 61 -38 61 -40 0 -3 -61 -38 -170 -97 -25
-14 -80 -44 -122 -67 l-77 -42 -51 17 c-47 15 -55 16 -85 1 -81 -39 -374 -229
-391 -254 -12 -19 -20 -52 -22 -99 l-4 -71 -107 59 c-58 33 -109 62 -113 66
-6 6 57 44 346 205 28 16 87 49 131 74 44 25 107 60 140 78 33 18 128 71 210
118 83 47 160 86 172 86 12 1 49 -15 82 -34z"/>
<path d="M1830 2504 c0 -64 3 -114 8 -112 4 2 52 27 106 57 l98 53 -39 22
c-21 12 -68 38 -105 59 l-68 37 0 -116z m91 29 c27 -14 49 -29 49 -33 0 -3
-25 -18 -55 -33 l-55 -27 0 60 c0 33 3 60 6 60 4 0 28 -12 55 -27z"/>
<path d="M1505 2469 c-121 -65 -230 -119 -243 -119 -13 0 -37 7 -54 16 -30 15
-31 15 -107 -32 -42 -26 -118 -72 -168 -103 l-92 -56 -1 -102 0 -101 112 -64
c62 -34 116 -64 120 -66 4 -2 8 39 8 91 0 76 4 99 18 115 9 12 97 71 195 131
188 117 211 125 268 96 28 -15 32 -14 100 22 l71 38 1 128 c1 70 0 127 -3 126
-3 0 -104 -54 -225 -120z m195 -28 l0 -89 -47 -27 c-34 -19 -55 -24 -73 -20
-14 4 -45 9 -70 11 -43 5 -53 0 -210 -98 -91 -57 -176 -111 -189 -120 -44 -31
-61 -68 -61 -135 0 -37 -4 -63 -10 -63 -6 0 -45 18 -86 41 l-75 41 3 91 3 90
145 90 c137 85 146 89 175 78 60 -21 86 -13 285 94 107 57 198 105 203 105 4
0 7 -40 7 -89z"/>
<path d="M1877 2299 c-131 -71 -252 -132 -268 -136 -19 -3 -44 1 -68 12 l-39
17 -166 -103 -166 -102 0 -103 0 -102 88 -49 c48 -26 90 -49 95 -51 4 -2 7 31
7 73 0 74 1 78 33 109 49 48 360 236 390 236 15 0 42 -7 60 -16 l34 -16 117
74 117 74 2 107 c1 59 2 107 2 107 0 -1 -107 -59 -238 -131z m195 -71 c-4 -4
-50 -34 -102 -67 -91 -57 -94 -58 -126 -45 -70 29 -61 33 -374 -159 -110 -67
-132 -93 -139 -166 l-6 -60 -62 35 -63 35 0 83 0 84 68 43 c37 24 77 49 90 56
12 6 50 29 83 49 56 35 63 37 93 26 67 -25 91 -17 321 108 l220 120 3 -67 c2
-36 -1 -70 -6 -75z"/>
<path d="M2200 2349 c0 -38 2 -69 5 -69 8 0 105 65 104 70 0 3 -24 19 -54 37
l-55 31 0 -69z"/>
<path d="M2375 2281 c-29 -29 -482 -311 -500 -311 -11 0 -37 8 -57 18 l-36 19
-166 -105 -166 -104 0 -89 c0 -82 1 -88 23 -95 12 -4 28 -7 34 -6 14 3 864
479 876 491 4 4 6 49 5 100 -2 64 -6 89 -13 82z m-15 -108 l0 -58 -78 -43
c-42 -23 -102 -56 -132 -74 -329 -186 -640 -358 -648 -358 -14 0 -18 31 -14
97 l4 51 109 69 c190 119 177 113 215 97 63 -26 81 -20 272 104 207 132 266
170 270 171 1 1 2 -25 2 -56z"/>
<path d="M2480 2204 l0 -54 51 26 c28 14 49 27 47 28 -1 1 -24 14 -50 29 l-48
26 0 -55z"/>
<path d="M376 2034 l2 -86 113 -58 c129 -66 157 -94 165 -167 5 -41 11 -52 36
-66 31 -18 58 -70 58 -113 0 -37 -36 -98 -70 -117 -119 -70 -262 73 -190 191
11 18 31 38 45 44 22 10 26 17 23 50 -3 38 -5 40 -93 87 l-90 48 2 -510 c2
-281 6 -514 10 -518 7 -5 1044 -588 1062 -597 3 -1 4 27 3 63 l-4 65 -235 127
c-178 97 -241 135 -255 158 -15 25 -18 51 -18 147 l0 117 -32 25 c-18 13 -61
40 -95 60 l-62 36 -36 -21 c-94 -56 -226 19 -225 128 1 45 36 111 72 133 92
56 227 -15 228 -119 1 -35 4 -38 104 -98 130 -79 136 -90 136 -240 0 -59 4
-114 8 -120 6 -9 406 -233 416 -233 1 0 0 103 -2 228 l-3 229 -235 127 c-269
147 -274 151 -274 256 0 63 -1 66 -34 87 -22 14 -40 38 -52 68 -17 45 -17 48
2 93 35 84 117 115 194 73 69 -37 93 -126 52 -193 -12 -19 -33 -40 -47 -46
-22 -10 -25 -18 -25 -65 0 -29 6 -60 12 -69 10 -12 398 -228 410 -228 2 0 2
116 0 257 l-3 258 -97 52 c-53 29 -176 97 -272 151 -428 241 -699 392 -702
392 -2 0 -2 -39 -2 -86z m235 -79 c94 -53 193 -109 222 -124 29 -16 169 -95
312 -175 143 -80 263 -147 268 -149 4 -1 6 -102 5 -223 l-3 -221 -177 96 -178
95 0 43 c0 32 5 45 20 53 11 6 31 31 46 56 69 117 -23 265 -157 252 -87 -9
-149 -79 -149 -168 0 -53 24 -105 62 -133 25 -18 28 -27 28 -74 0 -56 23 -115
56 -144 11 -9 117 -70 237 -135 l217 -118 0 -192 0 -192 -157 85 c-87 47 -168
91 -180 99 -21 14 -23 21 -23 119 0 57 -5 116 -11 132 -16 43 -66 89 -150 139
-72 42 -77 47 -82 85 -15 112 -150 182 -254 132 -40 -19 -89 -89 -99 -141 -16
-82 51 -178 138 -200 45 -11 75 -7 129 18 23 10 33 7 102 -35 l77 -46 0 -111
c0 -100 2 -115 25 -154 26 -44 43 -57 165 -122 278 -147 320 -173 320 -198 0
-13 -3 -24 -7 -24 -5 1 -231 126 -503 278 l-495 278 -5 339 c-3 187 -4 402 -2
478 l3 137 59 -30 c66 -33 74 -51 36 -81 -29 -23 -66 -96 -66 -131 0 -42 26
-92 69 -131 68 -61 144 -59 210 5 41 40 51 66 51 130 0 54 -26 110 -60 128
-11 6 -23 30 -29 62 -17 78 -46 107 -165 169 l-106 54 0 49 c0 39 3 47 15 42
9 -3 92 -49 186 -101z"/>
<path d="M2330 1959 c-533 -300 -725 -407 -752 -420 l-28 -12 0 -114 c0 -62 2
-113 5 -113 3 0 24 9 45 20 32 16 40 26 40 48 0 37 33 88 72 112 41 25 93 26
137 2 94 -50 93 -199 0 -248 -39 -20 -123 -15 -146 9 -15 14 -22 13 -84 -19
l-68 -34 -3 -225 c-2 -124 -1 -225 2 -225 8 0 392 210 408 222 8 7 12 45 12
122 0 160 4 165 161 245 123 63 126 65 127 99 5 127 186 166 258 56 25 -37 24
-116 -2 -152 -43 -58 -120 -77 -184 -44 l-35 18 -100 -49 c-142 -70 -135 -60
-135 -192 0 -157 7 -149 -275 -306 l-230 -127 -5 -206 c-3 -113 -5 -206 -4
-206 1 0 127 70 280 156 153 86 392 220 529 297 138 76 253 142 258 146 4 4 8
68 10 143 l2 135 -92 -45 c-88 -44 -91 -47 -97 -85 -9 -56 -39 -93 -90 -112
-58 -22 -112 -8 -156 42 -30 34 -32 40 -28 95 3 47 10 64 33 88 48 50 120 58
181 20 16 -10 36 -4 132 43 l112 56 3 460 c1 254 0 461 -3 461 -3 -1 -133 -73
-290 -161z m260 -54 c1 -85 1 -209 1 -275 0 -66 0 -187 -1 -269 l0 -148 -92
-42 -92 -42 -54 17 c-64 20 -111 10 -163 -33 -56 -47 -77 -140 -45 -201 47
-89 143 -124 226 -82 45 23 73 59 90 116 11 35 20 45 66 67 30 15 57 27 59 27
3 0 5 -44 5 -99 0 -110 4 -102 -85 -151 -33 -18 -249 -138 -479 -267 -230
-129 -425 -237 -432 -240 -12 -4 -14 25 -14 159 l0 165 51 32 c28 17 52 31 55
31 9 0 331 183 348 198 42 39 56 86 56 196 l0 104 100 51 c97 50 100 51 129
36 38 -19 114 -19 151 0 51 26 83 80 88 146 4 52 1 65 -22 100 -35 52 -80 79
-134 79 -84 0 -144 -44 -166 -121 -12 -43 -16 -46 -126 -104 -152 -81 -163
-97 -170 -253 -5 -109 -6 -116 -30 -132 -27 -19 -284 -160 -312 -172 -17 -7
-18 5 -18 182 l0 190 48 23 c42 22 50 23 77 11 51 -22 125 -17 167 11 63 42
93 134 67 202 -11 31 -54 79 -83 95 -87 47 -208 -7 -236 -107 -7 -24 -19 -50
-26 -56 -12 -10 -14 2 -14 69 0 87 -1 85 70 124 63 35 192 107 210 118 8 5
150 84 315 176 165 91 323 179 350 195 28 16 53 29 58 29 4 0 7 -70 7 -155z"/>
<path d="M161 1894 c0 -11 3 -14 6 -6 3 7 2 16 -1 19 -3 4 -6 -2 -5 -13z"/>
<path d="M568 1565 c-9 -21 -8 -28 7 -45 24 -27 51 -25 70 4 23 34 5 66 -36
66 -22 0 -32 -6 -41 -25z m52 -20 c0 -8 -4 -15 -9 -15 -13 0 -22 16 -14 24 11
11 23 6 23 -9z"/>
<path d="M958 1539 c-25 -14 -24 -65 1 -79 11 -5 24 -10 30 -10 16 0 41 30 41
50 0 21 -25 50 -43 50 -7 0 -20 -5 -29 -11z m42 -39 c0 -5 -7 -10 -15 -10 -8
0 -15 5 -15 10 0 6 7 10 15 10 8 0 15 -4 15 -10z"/>
<path d="M2348 1425 c-10 -22 -9 -29 9 -47 41 -40 100 2 73 52 -16 30 -67 27
-82 -5z m52 -20 c0 -8 -4 -15 -10 -15 -5 0 -10 7 -10 15 0 8 5 15 10 15 6 0
10 -7 10 -15z"/>
<path d="M1750 1390 c-11 -11 -20 -24 -20 -30 0 -15 38 -50 53 -50 18 0 47 32
47 53 0 15 -35 47 -52 47 -5 0 -17 -9 -28 -20z m40 -30 c0 -5 -4 -10 -10 -10
-5 0 -10 5 -10 10 0 6 5 10 10 10 6 0 10 -4 10 -10z"/>
<path d="M622 1158 c-28 -28 -7 -78 33 -78 12 0 26 5 33 12 7 7 12 21 12 33 0
12 -5 26 -12 33 -7 7 -21 12 -33 12 -12 0 -26 -5 -33 -12z m45 -44 c-9 -9 -28
6 -21 18 4 6 10 6 17 -1 6 -6 8 -13 4 -17z"/>
<path d="M2262 1018 c-7 -7 -12 -21 -12 -33 0 -12 5 -26 12 -33 7 -7 21 -12
33 -12 12 0 26 5 33 12 7 7 12 21 12 33 0 12 -5 26 -12 33 -7 7 -21 12 -33 12
-12 0 -26 -5 -33 -12z m48 -39 c0 -5 -7 -9 -15 -9 -15 0 -20 12 -9 23 8 8 24
-1 24 -14z"/>
</g>
</svg>
